<svg xmlns="http://www.w3.org/2000/svg" xmlns:xlink="http://www.w3.org/1999/xlink" width="2000" zoomAndPan="magnify" viewBox="0 0 1500 1499.999933" height="2000" preserveAspectRatio="xMidYMid meet" version="1.0"><defs><clipPath id="00b2b69ff4"><path d="M 201.714844 319.59375 L 1179 319.59375 L 1179 751 L 201.714844 751 Z M 201.714844 319.59375 " clip-rule="nonzero"/></clipPath><clipPath id="44c0310ab2"><path d="M 328 842 L 1298.214844 842 L 1298.214844 1180 L 328 1180 Z M 328 842 " clip-rule="nonzero"/></clipPath></defs><g clip-path="url(#00b2b69ff4)"><path fill="#ffffff" d="M 1178.25 751 C 1181.179688 513.992188 983.652344 319.972656 748.273438 319.972656 C 558.242188 319.972656 397.019531 443.234375 340.160156 614.152344 C 316.539062 685.210938 269.261719 719.691406 201.714844 751 L 486.664062 751 C 488.800781 606.070312 606.921875 489.25 752.363281 489.25 C 853.878906 489.25 942.078125 546.179688 986.824219 629.851562 L 759.566406 629.851562 C 698.972656 629.851562 662.960938 697.324219 657.609375 751 C 831.6875 751 1004.65625 751 1178.25 751 Z M 1178.25 751 " fill-opacity="1" fill-rule="evenodd"/></g><g clip-path="url(#44c0310ab2)"><path fill="#ff3131" d="M 748.273438 1179.960938 C 909.820312 1179.960938 1050.53125 1090.855469 1124.011719 959.144531 C 1154.726562 904.054688 1239.554688 859.636719 1298.328125 842.609375 L 1003.328125 842.609375 C 967.117188 946.335938 868.445312 1020.761719 752.363281 1020.761719 C 636.28125 1020.761719 537.605469 946.335938 501.398438 842.609375 L 328.3125 842.609375 C 370.679688 1035.539062 542.589844 1179.960938 748.273438 1179.960938 Z M 748.273438 1179.960938 " fill-opacity="1" fill-rule="evenodd"/></g></svg>